<svg xmlns="http://www.w3.org/2000/svg" viewBox="0 0 64 64" role="img" aria-labelledby="title desc">
  <title id="title">Znak marki</title>
  <desc id="desc">Ikonowy emblemat truskawki i czekolady.</desc>
  <path
    d="M32 16.2c8.9 0 18 9.4 18.3 20 .4 13.1-10.7 22.4-18.3 24.4-7.6-2-18.7-11.3-18.3-24.4.3-10.6 9.4-20 18.3-20Z"
    fill="#d22b3f"
    stroke="#d4af5a"
    stroke-linejoin="round"
    stroke-width="2.4"
  />
  <path
    d="M14.8 39.2c5.2 3.6 10.5 3.9 15.8.8 3.5 5 9.1 5.4 17 .9-1.9 10.3-9.9 17.5-15.6 19.1-6.7-1.8-16.2-9.2-17.2-20.8Z"
    fill="#261311"
  />
  <path
    d="M32 16.5c-2.3-4.9-6.3-7.3-12.4-7.1 2.4 4 5.9 5.9 10.5 5.6-3.1 1.8-4.7 4.5-5 8.1 3.4-1.2 5.5-3.3 6.9-6.6 1.4 3.3 3.5 5.4 6.9 6.6-.3-3.6-1.9-6.3-5-8.1 4.6.3 8.1-1.6 10.5-5.6-6.1-.2-10.1 2.2-12.4 7.1Z"
    fill="#6f8e57"
  />
  <path d="M32 10.7v10" fill="none" stroke="#e4c16f" stroke-linecap="round" stroke-width="1.9"/>
  <g fill="#f7e7b9">
    <ellipse cx="25.9" cy="29.2" rx="1.6" ry=".85" transform="rotate(-20 25.9 29.2)"/>
    <ellipse cx="32" cy="34.1" rx="1.65" ry=".9"/>
    <ellipse cx="38.1" cy="29.2" rx="1.6" ry=".85" transform="rotate(20 38.1 29.2)"/>
  </g>
</svg>
